<?xml version="1.0" encoding="UTF-8" standalone="no"?>
<svg
   xmlns:svg="http://www.w3.org/2000/svg"
   xmlns="http://www.w3.org/2000/svg"
   version="1.1"
   viewBox="0 0 92 16"
   style="fill:#fdba31"
   id="svg2">
  <path
     d="m 8.314,5.281 c 0,1.282 -0.869,2.077 -2.269,2.077 H 3.466 V 3.227 h 2.579 c 1.378,0 2.269,0.806 2.269,2.054 M 9.447,9.497 C 10.978,8.592 11.853,7.054 11.853,5.258 11.853,3.796 11.296,2.541 10.245,1.631 9.196,0.724 7.752,0.244 6.07,0.244 H 1.769 C 0.744,0.244 0,0.954 0,1.932 V 14.29 C 0,15.265 0.75,16 1.745,16 2.71,16 3.466,15.249 3.466,14.29 V 10.341 H 6.031 L 9.53,15.142 C 9.94,15.711 10.456,16 11.063,16 c 0.882,0 1.626,-0.709 1.626,-1.549 0,-0.373 -0.155,-0.78 -0.477,-1.246 z"
     id="path4" />
  <path
     d="M 25.017,12.671 H 18.758 V 9.047 h 4.061 c 0.873,0 1.53,-0.616 1.53,-1.433 0,-0.831 -0.657,-1.457 -1.53,-1.457 H 18.758 V 3.296 h 5.972 c 0.898,0 1.602,-0.671 1.602,-1.526 0,-0.884 -0.673,-1.526 -1.602,-1.526 h -7.717 c -0.982,0 -1.723,0.716 -1.723,1.665 v 12.149 c 0,0.949 0.741,1.665 1.723,1.665 h 8.004 c 0.913,0 1.603,-0.656 1.603,-1.526 0,-0.87 -0.69,-1.526 -1.603,-1.526"
     id="path6" />
  <path
     d="m 36.247,3.088 c 1.507,0 2.771,0.561 3.756,1.67 0.383,0.419 0.844,0.64 1.333,0.64 0.897,0 1.627,-0.685 1.627,-1.526 0,-0.44 -0.169,-0.831 -0.529,-1.23 -1.441,-1.675 -3.753,-2.676 -6.187,-2.676 -4.783,0 -8.531,3.522 -8.531,8.018 0,4.495 3.737,8.016 8.508,8.016 2.458,0 4.77,-1 6.185,-2.675 0.361,-0.42 0.529,-0.811 0.529,-1.23 0,-0.841 -0.717,-1.526 -1.602,-1.526 -0.493,0 -0.937,0.208 -1.357,0.64 -1.022,1.124 -2.244,1.67 -3.732,1.67 -2.879,0 -4.968,-2.049 -4.968,-4.873 0,-2.849 2.089,-4.918 4.968,-4.918"
     id="path8" />
  <path
     d="m 53.306,12.879 c -2.91,0 -4.943,-2.013 -4.943,-4.896 0,-2.882 2.033,-4.895 4.943,-4.895 2.865,0 4.945,2.059 4.945,4.895 0,2.837 -2.08,4.896 -4.945,4.896 M 53.283,-0.033 c -4.757,0 -8.484,3.521 -8.484,8.016 0,4.496 3.727,8.017 8.484,8.017 4.784,0 8.531,-3.521 8.531,-8.017 0,-4.495 -3.747,-8.016 -8.531,-8.016"
     id="path10" />
  <path
     d="m 69.542,0.244 h -3.536 c -0.976,0 -1.77,0.768 -1.77,1.711 V 5.43 c 0,0.924 0.779,1.676 1.734,1.676 0.957,0 1.734,-0.752 1.734,-1.676 V 3.296 h 1.815 c 3.197,0 5.182,1.778 5.182,4.641 0,2.876 -2.034,4.734 -5.182,4.734 h -1.815 v -2.134 c 0,-0.924 -0.777,-1.676 -1.734,-1.676 -0.955,0 -1.734,0.752 -1.734,1.676 v 3.475 c 0,0.943 0.794,1.711 1.77,1.711 h 3.536 c 5.122,0 8.699,-3.202 8.699,-7.786 0,-4.601 -3.496,-7.693 -8.699,-7.693"
     id="path12" />
  <path
     d="M 90.449,12.671 H 84.19 V 9.047 h 4.061 c 0.872,0 1.53,-0.616 1.53,-1.433 0,-0.831 -0.658,-1.457 -1.53,-1.457 H 84.19 V 3.296 h 5.972 c 0.898,0 1.602,-0.671 1.602,-1.526 0,-0.884 -0.673,-1.526 -1.602,-1.526 h -7.718 c -0.981,0 -1.722,0.716 -1.722,1.665 v 12.149 c 0,0.949 0.741,1.665 1.722,1.665 h 8.005 c 0.913,0 1.602,-0.656 1.602,-1.526 0,-0.87 -0.689,-1.526 -1.602,-1.526"
     id="path14" />
</svg>
